<svg xmlns="http://www.w3.org/2000/svg" viewBox="0 0 278 40" fill="#e82127">
  <path d="M238.1 14.4v9.7h8.3v5.7h-8.3v10.1h-6.8V8.7h17.2v5.7h-10.4zm-23.4 0v25.5h-6.8V14.4h-7.7V8.7h22.2v5.7h-7.7zm-51.7 13.5L156.4 40h-7.8l6.6-12.1h-6.6V8.7h17.2v5.7h-10.4v13.5zm-40.4-5.2h3.8l5.2 17.2h-7l-2-8.4-2 8.4h-7l5.2-17.2h3.8zm-.9-7.3c2.5 0 4.5 2 4.5 4.5s-2 4.5-4.5 4.5-4.5-2-4.5-4.5 2-4.5 4.5-4.5zm-27.7 7.3v2.9h10.4v5.7h-10.4v3.6h10.4v5.7h-17.2V22.7h17.2v5.7h-10.4v-5.7zm-27.7-8.3L63 24.7 59.8 40h-6.8l3.2-15.3-6.1-16h7.3l2.3 7.3 2.3-7.3h7.3l-6.1 16 3.2 15.3h-6.8l-3.1-15.3zm-30.6 0L32.4 40h-7l3.3-25.6-6.6 25.6h-5.4l-6.6-25.6L13.3 40H6.4L3 14.4h7.7l4.3 19.8 4.3-19.8h7.7l4.3 19.8 4.3-19.8h7.7zm232.5 25.5V14.4h7.7l7.8 15.3V14.4h6.8V40h-7.7l-7.8-15.3V40h-6.8zm-10.4 0V14.4h6.8V40h-6.8z"/>
  <path d="M139 0c-4.4 0-8.5 1.9-11.4 5.2l-73.7 86c-2.9 3.4-2.9 8.4 0 11.7l73.7 86c2.9 3.4 7 5.2 11.4 5.2s8.5-1.9 11.4-5.2l73.7-86c2.9-3.4 2.9-8.4 0-11.7L150.4 5.2C147.5 1.9 143.4 0 139 0z" fill="none"/>
</svg>
