<svg xmlns="http://www.w3.org/2000/svg" viewBox="0 0 100 100" width="100" height="100">
  <!-- 红色圆角正方形背景 -->
  <rect x="5" y="5" width="90" height="90" rx="18" ry="18" fill="#e50914"/>
  
  <!-- 特斯拉 T 形白色图标 -->
  <g fill="#ffffff">
    <!-- 顶部弧形（类似特斯拉 logo 顶部弧线） -->
    <path d="M50 22 
             C32 22, 20 26, 20 30 
             L20 35
             C20 33, 32 28, 50 28
             C68 28, 80 33, 80 35
             L80 30
             C80 26, 68 22, 50 22Z"/>
    
    <!-- 中间 T 形柱体 -->
    <path d="M44 32 L44 78 L56 78 L56 32 Z"/>
    
    <!-- 顶部装饰弧线 -->
    <path d="M50 20 
             C30 20, 18 25, 18 28 
             L18 24
             C18 21, 30 17, 50 17
             C70 17, 82 21, 82 24
             L82 28
             C82 25, 70 20, 50 20Z"/>
  </g>
</svg>
